<?xml version="1.0" encoding="UTF-8"?>
<svg id="Layer_1" xmlns="http://www.w3.org/2000/svg" version="1.1" viewBox="0 0 125.77 125.77">
  <!-- Generator: Adobe Illustrator 29.4.0, SVG Export Plug-In . SVG Version: 2.1.0 Build 152)  -->
  <defs>
    <style>
      .st0, .st1 {
        fill: #fff;
      }

      .st1, .st2 {
        fill-rule: evenodd;
      }

      .st2 {
        fill: #46b978;
      }
    </style>
  </defs>
  <g>
    <g>
      <path class="st1" d="M45.58,84.5c0,.12-.02.24-.05.35h0s-.65,0-.65,0c-.1,0-.18.07-.2.17v1.15h0v.96c0,.11.09.2.2.2h-.05c.11,0,.21.03.3.07.18.09.32.25.37.45.01.06.02.11.02.17h0s-.03,0-.05,0h-.92s0,0,0,0h0s-.02,0-.03,0c0,0-.02,0-.03,0,0,0-.02,0-.03,0,0,0-.02,0-.03,0,0,0,0,0,0,0,0,0-.02,0-.03,0,0,0,0,0,0,0,0,0-.02,0-.03-.01,0,0-.01,0-.02,0-.01,0-.02,0-.03-.01,0,0,0,0,0,0,0,0,0,0-.01,0-.01,0-.02-.01-.03-.02,0,0-.02-.01-.03-.02,0,0,0,0,0,0-.01,0-.02-.02-.03-.02,0,0-.01-.01-.02-.02,0,0,0,0,0,0,0,0-.01-.01-.02-.02t0,0s-.01-.01-.02-.02c0,0,0,0,0-.01,0,0,0,0,0-.01,0,0-.02-.02-.02-.03,0,0,0-.01-.01-.02,0,0-.01-.02-.02-.03,0,0-.01-.02-.02-.03,0,0,0-.02-.01-.03,0,0,0-.02-.01-.03,0,0,0,0,0,0,0,0,0,0,0,0,0,0,0-.01,0-.02,0,0,0-.01,0-.02,0,0,0-.01,0-.02,0-.02,0-.03-.01-.05,0,0,0-.01,0-.02,0-.02,0-.04,0-.06,0,0,0-.01,0-.02,0,0,0-.02,0-.03v-4.54c.11-.03.23-.05.35-.05s.24.02.35.05h0s0,0,0,0v1.11c.01.1.1.17.2.17h.65c.03.11.05.23.05.35Z"/>
      <path class="st1" d="M45.54,88.03s0,0,0,0h-.06s.04,0,.05,0c0,0,0,0,0,0Z"/>
    </g>
    <g>
      <path class="st1" d="M53.7,84.49c0,.12-.02.24-.05.36h0s-.66,0-.66,0c-.1,0-.19.08-.2.17v1.16h0v.97c0,.11.09.2.2.2h-.05c.11,0,.21.03.31.07.18.09.32.25.37.45.01.06.02.11.02.17h0s-.04,0-.05,0h-.93s0,0,0,0h0s-.02,0-.03,0c-.01,0-.02,0-.03,0-.01,0-.02,0-.03,0,0,0-.02,0-.03,0,0,0,0,0,0,0,0,0-.02,0-.03,0,0,0,0,0,0,0,0,0-.02,0-.03-.01,0,0-.01,0-.02,0-.01,0-.02,0-.03-.01,0,0,0,0,0,0,0,0,0,0-.01,0-.01,0-.02-.01-.03-.02-.01,0-.02-.01-.03-.02,0,0,0,0,0,0-.01,0-.02-.02-.03-.02,0,0-.01-.01-.02-.02,0,0,0,0,0,0,0,0-.01-.01-.02-.02t0,0s-.01-.01-.02-.02c0,0,0,0-.01-.01,0,0,0,0-.01-.01,0,0-.02-.02-.02-.03,0,0,0-.01-.01-.02,0,0-.01-.02-.02-.03,0,0-.01-.02-.02-.03,0,0,0-.02-.01-.03,0,0,0-.02-.01-.03,0,0,0,0,0,0,0,0,0,0,0,0,0,0,0-.01,0-.02,0,0,0-.01,0-.02,0,0,0-.01,0-.02,0-.02,0-.04-.01-.05,0,0,0-.01,0-.02,0-.02,0-.04,0-.06,0,0,0-.01,0-.02,0,0,0-.02,0-.03v-4.59c.12-.03.23-.05.35-.05s.24.02.36.05h0s0,0,0,0v1.13c.01.1.1.17.2.17h.66c.03.12.05.24.05.36Z"/>
      <path class="st1" d="M53.65,88.06s0,0,0,0h-.06s.04,0,.05,0c0,0,0,0,0,0Z"/>
    </g>
    <path class="st0" d="M41.53,88.06c-.58,0-1.05-.15-1.4-.45-.35-.3-.53-.71-.53-1.23h.85c0,.28.1.49.3.65.2.16.46.24.77.24.28,0,.52-.07.72-.21.19-.14.29-.32.29-.55,0-.05,0-.1-.01-.14,0-.04-.03-.08-.05-.12-.02-.04-.05-.07-.07-.1-.02-.03-.06-.06-.1-.09-.05-.03-.08-.05-.11-.07-.03-.02-.08-.04-.14-.06-.06-.02-.11-.04-.15-.05-.04-.01-.09-.03-.17-.05-.08-.02-.13-.03-.17-.04-.04,0-.1-.02-.18-.04-.43-.1-.75-.2-.94-.3-.43-.21-.67-.53-.73-.96,0-.07-.01-.14-.01-.21,0-.46.16-.82.48-1.08s.76-.39,1.31-.39.98.14,1.3.42c.31.28.47.66.47,1.15h-.83c0-.25-.09-.44-.27-.58s-.41-.21-.69-.21-.49.06-.66.17-.27.27-.27.48c0,.08.01.14.04.21s.07.12.12.17.12.09.17.12c.06.03.14.07.24.1.1.03.19.06.26.08.07.02.17.04.3.07.44.11.76.21.95.3.44.22.7.54.76.97.01.08.02.16.02.25,0,.33-.08.62-.25.86-.17.24-.39.42-.67.53-.28.12-.59.17-.94.17Z"/>
    <path class="st1" d="M59.54,85.1c-.16-1.32-1.29-2.31-2.61-2.31s-2.45.99-2.61,2.31c-.01.11-.02.22-.02.33s0,.22.02.33c.16,1.32,1.29,2.31,2.61,2.31.7,0,1.37-.28,1.86-.77l.05-.05-.56-.56-.05.05c-.2.2-.44.35-.7.44,0,0-.01,0-.02,0-.19.06-.38.09-.58.09-.42,0-.82-.14-1.15-.4-.24-.19-.44-.45-.56-.74,0,0,0,0,0-.01-.04-.1-.07-.2-.09-.3h1.85s2.55,0,2.55,0v-.07c.02-.11.03-.22.03-.33s0-.22-.02-.33ZM55.94,85.03s0,0,0,0h-.82c.02-.1.05-.2.09-.3,0,0,0,0,0-.01.12-.29.31-.54.55-.73.33-.26.73-.41,1.15-.41s.83.14,1.15.41c.24.19.43.45.55.73,0,0,0,0,0,.01.01.03.02.06.03.09l.07.21h-2.8Z"/>
    <path class="st1" d="M49.15,82.8c-.11-.01-.22-.02-.33-.02s-.22,0-.33.02c-1.32.16-2.31,1.29-2.31,2.62s.99,2.45,2.31,2.62c.11.01.22.02.33.02s.22,0,.33-.02c.21-.03.42-.08.62-.16h0c.26-.1.61-.28.9-.58v.67h.79v-2.55c0-1.33-.99-2.45-2.31-2.62ZM49.77,87h0c-.2.12-.42.2-.64.24-.1.02-.2.03-.3.03s-.2,0-.3-.03h-.03c-.88-.16-1.52-.93-1.52-1.82s.65-1.67,1.54-1.82c.1-.02.2-.03.3-.03s.2,0,.3.03h.02c.88.16,1.52.93,1.52,1.82h0c0,.61-.3,1.19-.81,1.53-.03.02-.05.04-.08.05Z"/>
    <g>
      <path class="st1" d="M70.09,88.06h-.82v-3.03c0-.78-.64-1.42-1.42-1.42s-1.42.64-1.42,1.42v3.03h-.82v-3.03c0-.78-.64-1.42-1.42-1.42s-1.42.64-1.42,1.42v3.03h-.82v-3.03c0-1.23,1.01-2.23,2.23-2.23.63,0,1.23.27,1.65.74.04.05.11.08.17.08s.13-.03.17-.08c.42-.47,1.02-.74,1.65-.74,1.23,0,2.23,1.01,2.23,2.23v3.03h0Z"/>
      <path class="st1" d="M89.17,88.07h.81v-2.5s0-.04,0-.05c0-.1,0-.21.03-.31.15-.92.95-1.59,1.88-1.59h.08v-.81h-.08c-1.37,0-2.53,1.02-2.69,2.38-.01.11-.02.22-.02.34,0,.02,0,.04,0,.05v2.5h0Z"/>
      <g>
        <path class="st1" d="M82.66,84.5c0,.12-.02.24-.05.35h0s-.66,0-.66,0c-.1,0-.19.08-.2.17v1.16h0v.97c0,.11.09.2.2.2h-.05c.11,0,.21.03.3.07.18.09.32.25.37.45.01.06.02.11.02.17h0s-.03,0-.05,0h-.93s0,0,0,0h0s-.02,0-.03,0c-.01,0-.02,0-.03,0-.01,0-.02,0-.03,0,0,0-.02,0-.03,0,0,0,0,0,0,0,0,0-.02,0-.03,0,0,0,0,0,0,0,0,0-.02,0-.03-.01,0,0-.01,0-.02,0-.01,0-.02,0-.03-.01,0,0,0,0,0,0,0,0,0,0-.01,0-.01,0-.02-.01-.03-.02-.01,0-.02-.01-.03-.02,0,0,0,0,0,0-.01,0-.02-.02-.03-.02,0,0-.01-.01-.02-.02,0,0,0,0,0,0,0,0-.01-.01-.02-.02t0,0s-.01-.01-.02-.02c0,0,0,0-.01-.01,0,0,0,0-.01-.01,0,0-.02-.02-.02-.03,0,0,0-.01-.01-.02,0,0-.01-.02-.02-.03,0,0-.01-.02-.02-.03,0,0,0-.02-.01-.03,0,0,0-.02-.01-.03,0,0,0,0,0,0,0,0,0,0,0,0,0,0,0-.01,0-.02,0,0,0-.01,0-.02,0,0,0-.01,0-.02,0-.02,0-.03-.01-.05,0,0,0-.01,0-.02,0-.02,0-.04,0-.06,0,0,0-.01,0-.02,0,0,0-.02,0-.03v-4.58c.12-.03.23-.05.35-.05s.24.02.35.05h0s0,0,0,0v1.12c.01.1.1.17.2.17h.66c.03.12.05.23.05.35Z"/>
        <path class="st1" d="M82.62,88.06s0,0,0,0h-.06s.04,0,.05,0c0,0,0,0,0,0Z"/>
      </g>
      <path class="st0" d="M78.55,88.08c-.58,0-1.05-.15-1.4-.46-.35-.3-.53-.72-.53-1.23h.85c0,.28.1.49.3.65.2.16.46.24.77.24.28,0,.52-.07.72-.21.2-.14.29-.32.29-.55,0-.05,0-.1-.01-.14,0-.04-.03-.09-.05-.12-.02-.04-.05-.07-.07-.1-.02-.03-.06-.06-.1-.09-.05-.03-.08-.05-.11-.07-.03-.02-.08-.04-.14-.06-.06-.02-.11-.04-.15-.05-.04-.01-.09-.03-.17-.05-.08-.02-.13-.03-.17-.04-.04,0-.1-.02-.18-.04-.44-.1-.75-.2-.94-.3-.43-.21-.68-.53-.73-.96,0-.07-.01-.14-.01-.21,0-.46.16-.82.48-1.08s.76-.39,1.31-.39.99.14,1.3.42c.31.28.47.66.47,1.15h-.83c0-.25-.09-.44-.27-.58s-.41-.21-.69-.21-.49.06-.67.17-.27.27-.27.48c0,.08.01.15.04.21s.07.12.13.17.12.09.17.12c.06.03.14.07.24.1.1.03.19.06.26.08.07.02.17.04.3.08.44.11.76.21.95.3.45.22.7.54.76.98.01.08.02.16.02.25,0,.33-.08.62-.25.86-.17.24-.39.42-.67.54-.28.12-.59.18-.94.18Z"/>
      <path class="st1" d="M88.53,85.11c-.16-1.32-1.29-2.31-2.61-2.31s-2.45.99-2.61,2.31c-.01.11-.02.22-.02.33s0,.22.02.33c.16,1.32,1.29,2.31,2.61,2.31.7,0,1.37-.28,1.86-.77l.05-.05-.56-.56-.05.05c-.2.2-.44.35-.7.44,0,0-.01,0-.02,0-.19.06-.38.09-.58.09-.42,0-.82-.14-1.15-.4-.24-.19-.44-.45-.56-.74,0,0,0,0,0-.01-.04-.1-.07-.2-.09-.3h1.85s2.55,0,2.55,0v-.07c.02-.11.03-.22.03-.33s0-.22-.02-.33ZM84.94,85.04s0,0,0,0h-.82c.02-.1.05-.2.09-.3,0,0,0,0,0-.01.12-.29.31-.54.55-.73.33-.26.73-.41,1.15-.41s.83.14,1.15.41c.24.19.43.45.55.73,0,0,0,0,0,.01.01.03.02.06.03.09l.07.21h-2.8Z"/>
      <path class="st1" d="M73.7,82.82c-.11-.01-.22-.02-.33-.02s-.22,0-.33.02c-1.32.16-2.31,1.29-2.31,2.61s.99,2.45,2.31,2.61c.11.01.22.02.33.02s.22,0,.33-.02c.21-.03.42-.08.62-.16h0c.26-.1.6-.28.9-.58v.67h.79v-2.55c0-1.33-.99-2.45-2.31-2.61ZM74.32,87.01h0c-.2.12-.42.2-.64.24-.1.02-.2.03-.3.03s-.2,0-.3-.03h-.03c-.88-.16-1.52-.93-1.52-1.82s.65-1.67,1.54-1.82c.1-.02.2-.03.3-.03s.2,0,.3.03h.02c.88.16,1.52.93,1.52,1.82h0c0,.61-.3,1.19-.81,1.53-.03.02-.05.04-.08.05Z"/>
    </g>
    <path class="st1" d="M39.05,85.82v-.06s0,0,0-.01c0-.02,0-.05,0-.08,0-.02,0-.05,0-.07,0,0,0-.01,0-.02,0-.02,0-.05,0-.07,0-.03,0-.05,0-.08,0-.02,0-.05,0-.07,0-.01,0-.02,0-.03,0-.01,0-.03,0-.04,0-.02,0-.03,0-.05,0-.05,0-.09-.01-.14-.04-.33-.14-.64-.29-.92-.01-.02-.03-.05-.04-.07h0s-.01-.04-.02-.05c0-.01-.01-.02-.02-.04-.02-.03-.03-.05-.05-.08,0,0,0,0,0,0-.02-.02-.03-.05-.05-.07-.01-.02-.02-.03-.04-.05,0,0,0,0,0,0-.01-.02-.03-.03-.04-.05-.01-.02-.03-.03-.04-.05-.04-.05-.09-.1-.14-.15-.01-.01-.02-.02-.03-.03-.01-.01-.02-.02-.04-.03-.01-.01-.03-.03-.04-.04-.02-.02-.03-.03-.05-.05-.01-.01-.02-.02-.04-.03-.03-.02-.06-.05-.09-.07-.02-.01-.03-.02-.05-.03-.02-.01-.03-.02-.05-.03-.02-.01-.03-.02-.05-.03-.02-.01-.03-.02-.05-.03-.02-.01-.03-.02-.05-.03-.09-.05-.18-.1-.27-.14-.02,0-.04-.02-.06-.02-.02,0-.04-.02-.06-.03-.06-.02-.12-.04-.18-.06-.02,0-.04-.01-.06-.02-.04-.01-.08-.02-.12-.03-.02,0-.04,0-.06-.01-.02,0-.04,0-.05,0-.02,0-.03,0-.05,0-.02,0-.04,0-.06,0-.03,0-.05,0-.08,0-.09,0-.17-.01-.26-.01-.04,0-.08,0-.12,0-.02,0-.04,0-.06,0-.02,0-.04,0-.06,0-.02,0-.04,0-.06,0-.02,0-.04,0-.06,0,0,0,0,0-.01,0-.04,0-.07.01-.11.02,0,0,0,0,0,0-.04,0-.08.02-.12.02-.19.04-.37.11-.55.2h0s0,0-.01,0c-.04.02-.08.04-.12.06-.01,0-.03.02-.04.02,0,0-.02,0-.02.01-.02,0-.03.02-.05.03-.02.01-.04.02-.06.04-.03.02-.07.04-.1.07,0,0,0,0-.01,0-.02.01-.03.02-.05.04-.02.01-.03.02-.05.04-.02.01-.03.02-.05.04-.03.03-.06.05-.09.08-.03.02-.05.05-.08.07-.01.01-.02.02-.03.03-.02.02-.04.04-.06.06-.01.01-.03.03-.04.05-.01.02-.03.03-.04.05-.01.02-.03.03-.04.05,0,0-.02.02-.02.03,0,0-.02.02-.02.03-.01.02-.02.03-.03.05-.03.04-.05.08-.08.12,0,.01-.02.03-.03.04-.02.03-.04.06-.05.09,0,.02-.02.03-.03.05-.02.05-.05.09-.07.14-.01.02-.02.05-.03.07,0,0,0,.01,0,.02,0,.02-.01.03-.02.05,0,.02-.01.03-.02.05,0,.02-.01.04-.02.06,0,.03-.02.05-.02.08,0,.02-.01.04-.01.05,0,0,0,0,0,.01,0,.01,0,.03-.01.05,0,0,0,0,0,0,0,.02,0,.04-.01.05,0,0,0,0,0,0,0,0,0,0,0,0,0,.01,0,.03,0,.04,0,0,0,0,0,0,0,.01,0,.03,0,.04,0,0,0,.01,0,.02,0,0,0,0,0,.01,0,0,0,.01,0,.02,0,.01,0,.03,0,.04,0,.02,0,.04,0,.06,0,.02,0,.04,0,.05,0,.04,0,.07,0,.11,0,.03,0,.05,0,.08,0,.03,0,.05,0,.08,0,.02,0,.05,0,.07,0,0,0,.01,0,.02,0,.02,0,.04,0,.05,0,.02,0,.03,0,.05,0,.01,0,.02,0,.03,0,.01,0,.02,0,.03,0,.02,0,.03,0,.05,0,0,0,.02,0,.02.03.28.11.54.22.78.03.06.06.12.09.17.01.03.03.05.04.08,0,0,0,.01,0,.02.01.02.03.05.04.07,0,0,0,0,0,0,.02.03.03.05.05.08,0,0,0,0,0,0,.02.02.03.04.05.07,0,0,0,.01.01.02.02.02.03.04.05.07,0,0,0,0,0,0,.02.02.03.04.05.06.03.03.05.06.08.09.02.02.04.04.06.06.02.02.04.03.05.05.06.05.12.1.18.15.02.02.04.03.06.04.03.02.05.04.08.05.01,0,.03.02.04.03.01,0,.02.02.04.02.07.04.14.08.21.12.01,0,.03.01.04.02.1.05.21.09.31.13.03,0,.05.02.08.02,0,0,.02,0,.03,0,.02,0,.04.01.05.01.04.01.08.02.12.03.03,0,.06.01.1.02.02,0,.03,0,.05,0,.02,0,.03,0,.05,0,.03,0,.07,0,.1.01.04,0,.08,0,.12,0,.02,0,.04,0,.07,0,.02,0,.04,0,.06,0,.7,0,1.37-.28,1.86-.77h0s.03-.08,0-.1l-.51-.51h0s-.05.05-.05.05c-.2.2-.44.35-.7.44,0,0-.01,0-.02,0-.19.06-.39.09-.58.09-.42,0-.82-.14-1.15-.4-.02-.01-.04-.03-.06-.05-.02-.01-.03-.03-.05-.04,0,0,0,0-.01-.01-.02-.01-.03-.03-.05-.05-.05-.05-.1-.11-.14-.16-.03-.04-.06-.08-.08-.12h0c-.06-.1-.12-.2-.17-.31,0,0,0,0,0-.01-.04-.09-.07-.19-.09-.29,0,0,0,0,0,0,0-.04-.01-.07-.02-.11,0-.02,0-.04,0-.07,0-.02,0-.05,0-.07,0-.03,0-.05,0-.08,0-.03,0-.05,0-.08,0-.07,0-.15.01-.22,0-.01,0-.03,0-.04,0-.01,0-.03,0-.04,0-.01,0-.03,0-.04.02-.12.06-.23.1-.34,0,0,0,0,0-.01,0-.02.02-.04.02-.05,0-.02.01-.03.02-.05,0,0,0,0,0-.01,0-.01.01-.02.02-.04.01-.03.03-.05.04-.08,0-.01.02-.03.03-.04,0,0,0-.01.01-.02,0-.01.01-.02.02-.03,0-.01.02-.03.03-.04.03-.04.06-.08.09-.12,0,0,.01-.02.02-.03.01-.02.03-.03.04-.05,0,0,.01-.01.02-.02,0,0,.01-.01.02-.02.01-.01.03-.03.04-.04,0,0,0,0,.01-.01.01-.01.03-.03.04-.04,0,0,.02-.01.03-.02,0,0,0,0,0,0,0,0,.02-.01.03-.02.02-.01.03-.03.05-.04,0,0,.02-.01.02-.02.02-.01.04-.03.06-.04.02-.01.04-.03.06-.04.02-.01.03-.02.05-.03,0,0,.02,0,.03-.01,0,0,0,0,0,0,.02,0,.03-.02.05-.03.04-.02.07-.03.11-.05.01,0,.03-.01.04-.02,0,0,0,0,0,0,.05-.02.09-.03.14-.05.02,0,.05-.01.07-.02.09-.02.18-.04.28-.05,0,0,0,0,0,0,.02,0,.05,0,.07,0,.02,0,.04,0,.07,0,.02,0,.05,0,.07,0,0,0,.01,0,.02,0,.01,0,.02,0,.03,0,.04,0,.08,0,.13,0,0,0,0,0,.01,0,.01,0,.03,0,.05,0,0,0,.01,0,.02,0,.01,0,.02,0,.03,0,.03,0,.06.01.09.02.02,0,.05,0,.07.02.1.03.2.06.29.1.05.02.09.04.14.07.02.01.05.02.07.04.02.01.04.03.06.04,0,0,0,0,0,0,.02.01.04.02.05.04,0,0,.01,0,.02.01.01,0,.03.02.04.03.01.01.03.02.04.03.04.03.08.07.12.11.02.02.03.03.04.05.15.16.27.35.36.55,0,0,0,0,0,0,0,0,0,0,0,.01.01.03.02.06.03.09v.03c.03.05-.02.11-.07.09-.73-.21-1.39-.15-2.17.21-.03.02-.05.06-.04.09.04.11.1.2.17.29.07.09.16.18.25.26.02.02.05.02.08.01.59-.25,1.02-.29,1.58-.09.2.07.42.11.63.11h.44Z"/>
  </g>
  <g>
    <path class="st2" d="M67.22,53.08c0,.17,0,.34,0,.5,0,.15-.01.29-.02.44,0,.04,0,.09,0,.14,0,.15-.02.3-.03.46-.02.16-.03.32-.05.48,0,.02,0,.05-.01.08l-.05.39h-2.77c-.75,0-1.49-.07-2.22-.21-.6-.12-1.2-.28-1.78-.49-2.46-.91-4.54-1.05-6.85-.51-.17.04-.34.08-.51.13-.1.03-.21.06-.31.09-.74.22-1.51.51-2.32.86-.16.07-.35.04-.48-.08-.15-.14-.31-.28-.46-.42-.04-.04-.07-.07-.11-.11-.35-.34-.68-.69-.98-1.07,0-.01-.02-.02-.03-.03-.44-.56-.83-1.17-1.08-1.84-.09-.22.01-.47.23-.57.29-.13.59-.26.88-.38,1.82-.76,3.55-1.26,5.25-1.51,2.54-.37,5.01-.17,7.61.59.35.1.67-.23.55-.58l-.07-.21c-.06-.18-.13-.37-.21-.55,0-.02-.02-.04-.03-.07,0,0,0-.01,0-.02-.54-1.3-1.31-2.5-2.28-3.52-.09-.1-.19-.2-.28-.29-.24-.24-.48-.46-.74-.67-.09-.08-.18-.15-.27-.22-.09-.07-.17-.14-.26-.2-.03-.03-.07-.06-.11-.08-.07-.05-.14-.1-.21-.15-.04-.03-.08-.06-.13-.08,0,0,0,0-.01-.01,0,0,0,0-.01,0-.02-.01-.04-.03-.06-.04-.05-.03-.09-.06-.14-.09-.07-.04-.14-.09-.21-.13-.02-.01-.05-.03-.07-.04-.05-.03-.1-.06-.15-.09-.05-.03-.1-.06-.15-.09-.02-.01-.04-.02-.06-.03-.07-.04-.14-.08-.22-.12-.14-.08-.29-.15-.44-.22-.07-.04-.15-.07-.22-.1-.22-.1-.45-.19-.68-.28-.15-.06-.31-.11-.46-.16-.15-.05-.31-.1-.47-.14-.05-.01-.11-.03-.16-.04-.03,0-.05-.01-.07-.02-.15-.04-.3-.08-.45-.11-.11-.03-.23-.05-.35-.07-.07-.01-.14-.03-.21-.04-.04,0-.09-.01-.13-.02-.02,0-.05,0-.07,0-.04,0-.07-.01-.11-.02-.1-.01-.19-.03-.29-.04,0,0-.01,0-.02,0s-.01,0-.02,0c-.01,0-.03,0-.04,0-.06,0-.11-.01-.16-.01-.21-.02-.42-.04-.63-.04-.07,0-.13,0-.2,0-.04,0-.08,0-.12,0-.15,0-.3,0-.45,0-.14,0-.28.01-.42.02-.15.01-.3.02-.45.03h0s0,0-.01,0c0,0-.01,0-.01,0-.07,0-.15.01-.22.02-.07,0-.15.02-.22.03-.06,0-.12.02-.18.03h0c-.08.01-.17.03-.25.04-.14.03-.29.06-.44.09-.1.02-.19.04-.29.07-.05.01-.1.02-.14.04-.06.01-.12.03-.18.05-.03,0-.07.02-.1.03-.06.02-.12.04-.18.05-.04.01-.08.03-.13.04-.11.03-.22.07-.33.11-.09.03-.17.06-.26.1-.06.02-.13.05-.19.07,0,0,0,0-.01,0-.08.04-.16.07-.24.1-.11.05-.23.1-.34.15-.11.05-.23.11-.34.17-.05.03-.1.05-.15.08-.03.01-.05.03-.07.04-.03.01-.05.03-.08.04,0,0-.01,0-.02,0,0,0,0,0-.01.01-.05.03-.11.06-.16.09-.11.06-.22.13-.33.2-.13.08-.25.16-.37.24-.12.08-.25.17-.37.26-.05.03-.1.07-.15.11-.11.08-.21.16-.31.24-.03.02-.06.04-.09.07-.03.02-.06.05-.08.07-.01.01-.03.02-.04.03-.01.01-.03.02-.04.03-.01.01-.03.02-.04.04-.03.02-.05.05-.08.07-.05.04-.09.08-.14.12-.05.04-.09.09-.14.13-.02.02-.05.04-.08.07h0s-.04.03-.05.05c-.07.07-.14.13-.21.2-.02.02-.04.04-.06.06-.02.02-.04.04-.06.06-.02.02-.04.04-.06.06-.02.02-.04.04-.06.06h0s-.05.05-.07.08c-.07.07-.14.15-.21.23-.05.06-.1.11-.15.17-.21.25-.41.5-.59.76-.06.09-.12.18-.18.27-.04.07-.09.13-.13.2-.03.04-.05.08-.08.12-.06.09-.11.18-.16.27-.09.16-.18.32-.27.49-.04.08-.08.15-.12.23-.01.02-.02.03-.03.05,0,.02-.01.03-.02.05-.05.1-.09.2-.14.29-.05.11-.1.23-.15.34-.01.02-.02.05-.03.08-.28.7-.49,1.42-.64,2.16-.02.09-.04.18-.05.28-.02.1-.03.19-.04.28-.02.09-.03.18-.04.27-.06.46-.08.93-.08,1.41,0,.16,0,.32.01.48,0,.16.01.32.03.48.01.15.03.3.04.45.02.14.04.29.06.43.03.23.08.45.13.67,0,.01,0,.02,0,.03.14.63.33,1.25.57,1.85.01.03.02.06.03.08.21.52.47,1.03.75,1.51.09.16.19.32.29.47,0,0,0,0,0,0h0c.17.25.35.5.53.74.28.36.59.71.91,1.03.07.07.14.14.22.21.03.03.05.05.07.07,0,0,.01,0,.02.01,0,0,.01.01.02.02.01.01.03.03.04.04.1.09.2.18.3.27.06.05.12.1.17.15.06.05.12.1.18.15.26.21.53.41.81.59.09.06.17.11.26.17.01,0,.02.01.04.02.08.06.17.11.26.16.09.06.18.11.27.16h.01c.1.06.2.11.29.16.1.05.2.1.29.15.2.09.39.18.59.26.32.13.64.25.97.35.09.03.18.06.27.08.02,0,.04.01.06.02.09.03.18.05.27.07.07.02.13.03.2.05.5.12,1.01.21,1.53.26.17.02.34.03.51.04.22.01.43.02.65.02s.44,0,.66-.02c.1,0,.19-.01.28-.02.01,0,.03,0,.04,0,.1,0,.21-.02.31-.03.12-.01.23-.03.35-.04.32-.04.65-.1.97-.18.09-.02.18-.04.28-.07.09-.02.19-.05.28-.07.09-.03.18-.05.27-.08.09-.03.18-.06.27-.08,0,0,.02,0,.03-.01.01,0,.02,0,.03,0,.02,0,.03-.01.05-.02.11-.04.21-.07.31-.11.21-.08.41-.16.62-.25,1.32-.58,2.51-1.4,3.54-2.43l.35-.35h0s2.91,2.91,2.91,2.91l.31.31c.17.17.17.46,0,.63l-.03.03c-.09.09-.19.18-.28.27-.07.06-.13.13-.2.19-.08.08-.16.15-.25.22-.8.71-1.65,1.33-2.55,1.87-.08.05-.16.1-.24.14-.24.14-.48.27-.73.39-.1.05-.2.1-.29.14-.1.05-.19.09-.29.14,0,0-.01,0-.02.01-.09.04-.18.08-.28.12-.24.11-.49.21-.74.3-.1.04-.2.08-.31.11h-.02c-.1.04-.2.08-.3.11-.16.06-.32.11-.48.15-.12.04-.25.07-.37.11-.13.04-.26.07-.39.1-.29.07-.59.14-.89.2-.1.02-.21.04-.31.06-.11.02-.21.04-.32.05-.08.01-.15.02-.23.03-.16.02-.32.04-.48.06-.13.01-.26.03-.39.04-.07,0-.15.01-.22.02-.15.01-.31.02-.46.03-.07,0-.14,0-.22,0-.08,0-.16,0-.24,0-.11,0-.22,0-.33,0h0c-.07,0-.13,0-.2,0-.07,0-.13,0-.19,0-.07,0-.14,0-.21,0-.07,0-.14,0-.21-.01-.25-.01-.49-.03-.74-.05-.22-.02-.44-.04-.66-.07-.05,0-.1-.01-.16-.02-.05,0-.1-.01-.15-.02h-.04c-.09-.02-.18-.03-.27-.05-.1-.02-.21-.04-.31-.06-.1-.02-.2-.04-.31-.06-.26-.05-.52-.11-.77-.18-.11-.03-.23-.06-.35-.09-.06-.02-.11-.03-.16-.05-.17-.05-.34-.1-.51-.16-.05-.01-.09-.03-.14-.05-.08-.02-.15-.05-.23-.08-.09-.03-.18-.06-.27-.1-.08-.03-.16-.06-.24-.09-.1-.04-.2-.08-.29-.12-.22-.09-.44-.19-.65-.29-.06-.02-.11-.05-.16-.07-.02-.01-.05-.02-.07-.03-.02,0-.04-.02-.07-.03-.04-.02-.09-.04-.14-.07-.23-.12-.46-.24-.69-.37-.22-.13-.45-.26-.67-.39-.04-.02-.08-.05-.11-.07-.04-.02-.07-.05-.11-.07-.08-.05-.17-.11-.25-.17-.17-.11-.33-.23-.5-.35-.13-.09-.25-.19-.38-.28-.39-.3-.77-.62-1.13-.96-.11-.11-.23-.21-.34-.32-.06-.06-.12-.12-.18-.18-.03-.03-.06-.06-.09-.09-.03-.03-.06-.06-.09-.09-.04-.04-.09-.09-.13-.14-.13-.14-.26-.28-.39-.43-.11-.12-.22-.25-.32-.37-.02-.02-.03-.03-.04-.05-.06-.07-.11-.14-.17-.21-.03-.03-.06-.07-.08-.1-.03-.03-.06-.07-.08-.1-.01-.02-.03-.04-.04-.06-.01-.02-.03-.04-.04-.06-.1-.14-.21-.28-.31-.42,0,0,0,0-.01-.01-.11-.16-.22-.32-.33-.48,0,0,0,0,0-.01-.1-.15-.19-.3-.28-.45-.02-.03-.04-.06-.06-.1-.1-.16-.19-.33-.28-.5-.02-.03-.04-.06-.05-.1-.08-.15-.16-.29-.24-.45-.09-.18-.18-.37-.27-.55-.71-1.53-1.2-3.19-1.41-4.95,0-.05-.01-.1-.02-.15-.01-.11-.02-.21-.03-.32,0-.07-.01-.13-.02-.2,0-.07-.01-.13-.02-.2,0-.1-.01-.2-.02-.3,0-.11-.01-.23-.01-.34,0-.05,0-.09,0-.13,0-.14,0-.29,0-.43,0-.17,0-.35,0-.52,0-.17.01-.34.02-.5.01-.24.03-.48.06-.71,0,0,0-.01,0-.02.01-.11.02-.21.04-.32.01-.12.03-.25.05-.37.01-.09.03-.18.04-.27,0-.03.01-.07.02-.1,0-.03,0-.05.01-.07,0-.04.01-.07.02-.11.01-.08.03-.16.04-.25,0-.01,0-.03,0-.05h0c.02-.1.04-.19.06-.28,0-.01,0-.02,0-.03,0,0,0-.01,0-.02.02-.11.05-.23.08-.34,0-.02,0-.04.01-.06.02-.1.05-.19.07-.29,0-.02.01-.04.02-.07.03-.11.06-.22.1-.34.02-.08.05-.16.07-.24.01-.05.03-.1.05-.14,0-.03.02-.06.03-.1.01-.04.03-.09.04-.13.03-.08.06-.17.09-.25.03-.1.07-.2.1-.29.04-.11.08-.22.13-.33.01-.04.03-.07.04-.11.06-.15.12-.29.19-.44.13-.3.27-.6.42-.89.05-.11.11-.21.17-.32.05-.1.11-.2.16-.29.06-.1.11-.19.17-.29.03-.04.05-.09.08-.13.03-.04.06-.09.08-.13.15-.26.32-.51.5-.76.07-.1.14-.2.21-.3.04-.07.09-.13.14-.19.05-.07.1-.13.14-.19.06-.08.12-.16.19-.24.02-.03.05-.06.07-.09.02-.03.04-.05.07-.08.02-.03.04-.05.07-.08.04-.05.09-.11.13-.16.08-.1.17-.2.25-.29.12-.14.25-.28.38-.41.07-.07.14-.14.21-.21.16-.16.32-.31.48-.46.14-.13.28-.26.43-.39.05-.05.11-.09.16-.14.02-.01.03-.03.05-.04.03-.03.06-.05.09-.08.05-.04.1-.08.14-.11.1-.08.19-.15.29-.23.1-.08.2-.15.3-.22.02-.01.04-.03.06-.04.05-.04.1-.08.15-.11.05-.04.1-.07.15-.11.1-.07.21-.14.31-.21.12-.08.23-.15.35-.23.05-.03.1-.06.15-.09.05-.03.1-.06.15-.09.02-.01.05-.03.08-.05.03-.01.05-.03.08-.04.04-.03.09-.05.13-.08.05-.03.09-.05.14-.08.25-.14.51-.27.76-.4.01,0,.03-.01.04-.02.01,0,.03-.01.04-.02h0c.14-.07.28-.13.41-.19.14-.06.28-.13.42-.19.28-.12.57-.23.86-.33t0,0c.58-.21,1.17-.38,1.78-.52.22-.05.45-.1.67-.14.02,0,.04,0,.06-.01h0s.03,0,.04,0c.22-.04.45-.08.67-.11.03,0,.06,0,.08,0,.12-.02.24-.03.36-.05.13-.01.26-.03.39-.04.13-.01.26-.02.39-.03.06,0,.13-.01.19-.01.06,0,.13,0,.19,0,.03,0,.06,0,.1,0,.1,0,.19,0,.29-.01.13,0,.26,0,.39,0,.48,0,.97.02,1.45.06.07,0,.13.01.2.02.16.02.33.03.49.06,0,0,.02,0,.03,0,.06,0,.13.02.19.03.06,0,.13.02.19.03.03,0,.07,0,.1.01.02,0,.04,0,.06.01.03,0,.05,0,.08.01.03,0,.05,0,.08.01.11.02.23.04.35.06.13.03.25.05.38.08.26.06.52.12.78.19.13.04.26.07.39.11.38.11.75.24,1.12.38.06.02.11.04.17.06h.03c.06.04.11.06.17.08.01,0,.03.01.04.02.05.02.1.04.15.06.08.03.15.06.23.1.58.25,1.15.53,1.7.86.11.06.21.12.32.19.11.06.21.13.31.2.11.07.21.14.31.2.1.07.2.14.31.21.1.07.2.14.3.21.2.15.4.3.59.45.08.06.15.13.23.19.06.05.11.09.17.14.06.05.11.1.17.15.09.08.18.16.28.25.08.07.15.14.22.21.07.07.15.14.22.22.11.11.22.22.33.34.08.08.15.16.23.25.06.07.12.13.18.2.05.06.11.12.16.18.09.1.17.2.25.31.09.1.17.21.25.32,0,.01.01.02.02.03.08.1.16.21.24.32.11.15.22.31.33.46,0,.01.02.02.03.03.11.16.22.33.32.5.05.08.1.15.14.23.05.08.1.15.14.23l.06.1c.09.16.18.31.27.47.96,1.77,1.6,3.73,1.86,5.83.04.29.06.58.08.87,0,.1.01.2.02.3,0,.09.01.18.01.27,0,.07,0,.14,0,.2,0,.15,0,.3,0,.45Z"/>
    <path class="st2" d="M87.8,40.55s0,0,0,0c-.64-.64-1.33-1.2-2.06-1.7-.01-.01-.03-.02-.04-.03-.14-.09-.27-.18-.41-.27-.06-.04-.12-.08-.18-.11-.1-.06-.21-.12-.31-.18-.1-.06-.2-.12-.3-.17-.07-.04-.15-.07-.22-.11-.14-.07-.27-.14-.41-.21-.04-.02-.09-.04-.13-.06-.17-.08-.34-.15-.51-.23-.02,0-.04-.02-.06-.02-1.04-.43-2.13-.74-3.27-.91-.02,0-.03,0-.05,0-.21-.03-.43-.06-.64-.08-.07,0-.14,0-.21-.02-.16-.01-.33-.03-.49-.04-.24-.01-.47-.02-.71-.02s-.48,0-.71.02c-.16,0-.33.02-.49.04-.07,0-.14,0-.21.02-.21.02-.43.05-.64.08-.02,0-.03,0-.05,0-1.14.17-2.24.48-3.27.91-.02,0-.04.02-.06.02-.17.07-.34.15-.51.23-.04.02-.09.04-.13.06-.14.07-.27.14-.41.21-.07.04-.15.07-.22.11-.1.05-.2.11-.3.17-.1.06-.21.12-.31.18-.06.04-.12.08-.18.11-.14.09-.28.17-.41.27-.01.01-.03.02-.04.03-.73.5-1.43,1.07-2.06,1.7,0,0,0,0,0,0-2.56,2.57-4.16,6.11-4.16,10v5c.96.02,1.94.03,2.93.02.76,0,1.5-.01,2.24-.02h0v-5c0-4.95,4.05-9,9-9s9,4.05,9,9v19.23h5.18v-19.23c0-3.9-1.59-7.44-4.16-10Z"/>
  </g>
</svg>